<svg xmlns="http://www.w3.org/2000/svg" xmlns:xlink="http://www.w3.org/1999/xlink" version="1.1" width="256" height="256" viewBox="0 0 256 256" xml:space="preserve">
<desc>Created with Fabric.js 1.7.22</desc>
<defs>
</defs>
<g transform="translate(128 128) scale(0.77 0.77)" style="">
	<g style="stroke: none; stroke-width: 0; stroke-dasharray: none; stroke-linecap: butt; stroke-linejoin: miter; stroke-miterlimit: 10; fill: none; fill-rule: nonzero; opacity: 1;" transform="translate(-165.15000000000003 -165.15000000000003) scale(3.67 3.67)" >
	<path d="M 84.346 28.398 v 1.385 c 0 1.129 -0.924 2.053 -2.053 2.053 H 8.948 c -1.129 0 -2.053 -0.924 -2.053 -2.053 v -1.385 c 0 -1.129 0.924 -2.053 2.053 -2.053 h 73.345 C 83.422 26.345 84.346 27.269 84.346 28.398 z" style="stroke: none; stroke-width: 1; stroke-dasharray: none; stroke-linecap: butt; stroke-linejoin: miter; stroke-miterlimit: 10; fill: rgb(227,227,244); fill-rule: nonzero; opacity: 1;" transform=" matrix(1 0 0 1 0 0) " stroke-linecap="round" />
	<path d="M 82.293 32.335 H 8.948 c -1.408 0 -2.553 -1.146 -2.553 -2.553 v -1.385 c 0 -1.407 1.145 -2.553 2.553 -2.553 h 73.345 c 1.407 0 2.553 1.146 2.553 2.553 v 1.385 C 84.846 31.19 83.701 32.335 82.293 32.335 z M 8.948 26.845 c -0.856 0 -1.553 0.696 -1.553 1.553 v 1.385 c 0 0.856 0.697 1.553 1.553 1.553 h 73.345 c 0.856 0 1.553 -0.696 1.553 -1.553 v -1.385 c 0 -0.856 -0.696 -1.553 -1.553 -1.553 H 8.948 z" style="stroke: none; stroke-width: 1; stroke-dasharray: none; stroke-linecap: butt; stroke-linejoin: miter; stroke-miterlimit: 10; fill: rgb(40,39,44); fill-rule: nonzero; opacity: 1;" transform=" matrix(1 0 0 1 0 0) " stroke-linecap="round" />
	<circle cx="19.249000000000002" cy="29.089" r="6.119" style="stroke: none; stroke-width: 1; stroke-dasharray: none; stroke-linecap: butt; stroke-linejoin: miter; stroke-miterlimit: 10; fill: rgb(255,213,127); fill-rule: nonzero; opacity: 1;" transform="  matrix(1 0 0 1 0 0) "/>
	<path d="M 19.248 35.209 c -3.38 0 -6.119 -2.74 -6.119 -6.119 s 2.74 -6.119 6.119 -6.119 C 15.168 27.05 15.168 31.13 19.248 35.209 z" style="stroke: none; stroke-width: 1; stroke-dasharray: none; stroke-linecap: butt; stroke-linejoin: miter; stroke-miterlimit: 10; fill: rgb(255,191,103); fill-rule: nonzero; opacity: 1;" transform=" matrix(1 0 0 1 0 0) " stroke-linecap="round" />
	<path d="M 19.248 35.709 c -3.65 0 -6.619 -2.97 -6.619 -6.619 s 2.969 -6.619 6.619 -6.619 s 6.619 2.97 6.619 6.619 S 22.897 35.709 19.248 35.709 z M 19.248 23.471 c -3.099 0 -5.619 2.521 -5.619 5.619 s 2.521 5.619 5.619 5.619 s 5.619 -2.521 5.619 -5.619 S 22.346 23.471 19.248 23.471 z" style="stroke: none; stroke-width: 1; stroke-dasharray: none; stroke-linecap: butt; stroke-linejoin: miter; stroke-miterlimit: 10; fill: rgb(40,39,44); fill-rule: nonzero; opacity: 1;" transform=" matrix(1 0 0 1 0 0) " stroke-linecap="round" />
	<path d="M 84.346 45.648 v 1.385 c 0 1.129 -0.924 2.053 -2.053 2.053 H 8.948 c -1.129 0 -2.053 -0.924 -2.053 -2.053 v -1.385 c 0 -1.129 0.924 -2.053 2.053 -2.053 h 73.345 C 83.422 43.595 84.346 44.519 84.346 45.648 z" style="stroke: none; stroke-width: 1; stroke-dasharray: none; stroke-linecap: butt; stroke-linejoin: miter; stroke-miterlimit: 10; fill: rgb(227,227,244); fill-rule: nonzero; opacity: 1;" transform=" matrix(1 0 0 1 0 0) " stroke-linecap="round" />
	<path d="M 82.293 49.585 H 8.948 c -1.408 0 -2.553 -1.146 -2.553 -2.553 v -1.385 c 0 -1.407 1.145 -2.553 2.553 -2.553 h 73.345 c 1.407 0 2.553 1.146 2.553 2.553 v 1.385 C 84.846 48.44 83.701 49.585 82.293 49.585 z M 8.948 44.095 c -0.856 0 -1.553 0.696 -1.553 1.553 v 1.385 c 0 0.856 0.697 1.553 1.553 1.553 h 73.345 c 0.856 0 1.553 -0.696 1.553 -1.553 v -1.385 c 0 -0.856 -0.696 -1.553 -1.553 -1.553 H 8.948 z" style="stroke: none; stroke-width: 1; stroke-dasharray: none; stroke-linecap: butt; stroke-linejoin: miter; stroke-miterlimit: 10; fill: rgb(40,39,44); fill-rule: nonzero; opacity: 1;" transform=" matrix(1 0 0 1 0 0) " stroke-linecap="round" />
	<path d="M 84.346 62.898 v 1.385 c 0 1.129 -0.924 2.053 -2.053 2.053 H 8.948 c -1.129 0 -2.053 -0.924 -2.053 -2.053 v -1.385 c 0 -1.129 0.924 -2.053 2.053 -2.053 h 73.345 C 83.422 60.845 84.346 61.769 84.346 62.898 z" style="stroke: none; stroke-width: 1; stroke-dasharray: none; stroke-linecap: butt; stroke-linejoin: miter; stroke-miterlimit: 10; fill: rgb(227,227,244); fill-rule: nonzero; opacity: 1;" transform=" matrix(1 0 0 1 0 0) " stroke-linecap="round" />
	<path d="M 82.293 66.835 H 8.948 c -1.408 0 -2.553 -1.146 -2.553 -2.553 v -1.385 c 0 -1.407 1.145 -2.553 2.553 -2.553 h 73.345 c 1.407 0 2.553 1.146 2.553 2.553 v 1.385 C 84.846 65.69 83.701 66.835 82.293 66.835 z M 8.948 61.345 c -0.856 0 -1.553 0.696 -1.553 1.553 v 1.385 c 0 0.856 0.697 1.553 1.553 1.553 h 73.345 c 0.856 0 1.553 -0.696 1.553 -1.553 v -1.385 c 0 -0.856 -0.696 -1.553 -1.553 -1.553 H 8.948 z" style="stroke: none; stroke-width: 1; stroke-dasharray: none; stroke-linecap: butt; stroke-linejoin: miter; stroke-miterlimit: 10; fill: rgb(40,39,44); fill-rule: nonzero; opacity: 1;" transform=" matrix(1 0 0 1 0 0) " stroke-linecap="round" />
	<path d="M 89.5 8.188 v 73.625 c 0 1.989 -1.627 3.616 -3.616 3.616 h -1.679 c -1.989 0 -3.616 -1.627 -3.616 -3.616 V 8.188 c 0 -1.989 1.627 -3.616 3.616 -3.616 h 1.679 C 87.873 4.572 89.5 6.199 89.5 8.188 z" style="stroke: none; stroke-width: 1; stroke-dasharray: none; stroke-linecap: butt; stroke-linejoin: miter; stroke-miterlimit: 10; fill: rgb(227,227,244); fill-rule: nonzero; opacity: 1;" transform=" matrix(1 0 0 1 0 0) " stroke-linecap="round" />
	<circle cx="33.459" cy="29.089" r="6.119" style="stroke: none; stroke-width: 1; stroke-dasharray: none; stroke-linecap: butt; stroke-linejoin: miter; stroke-miterlimit: 10; fill: rgb(255,213,127); fill-rule: nonzero; opacity: 1;" transform="  matrix(1 0 0 1 0 0) "/>
	<path d="M 33.459 35.209 c -3.38 0 -6.119 -2.74 -6.119 -6.119 s 2.74 -6.119 6.119 -6.119 C 29.379 27.05 29.379 31.13 33.459 35.209 z" style="stroke: none; stroke-width: 1; stroke-dasharray: none; stroke-linecap: butt; stroke-linejoin: miter; stroke-miterlimit: 10; fill: rgb(255,191,103); fill-rule: nonzero; opacity: 1;" transform=" matrix(1 0 0 1 0 0) " stroke-linecap="round" />
	<path d="M 33.459 35.709 c -3.65 0 -6.62 -2.97 -6.62 -6.619 s 2.97 -6.619 6.62 -6.619 s 6.619 2.97 6.619 6.619 S 37.109 35.709 33.459 35.709 z M 33.459 23.471 c -3.099 0 -5.62 2.521 -5.62 5.619 s 2.521 5.619 5.62 5.619 s 5.619 -2.521 5.619 -5.619 S 36.558 23.471 33.459 23.471 z" style="stroke: none; stroke-width: 1; stroke-dasharray: none; stroke-linecap: butt; stroke-linejoin: miter; stroke-miterlimit: 10; fill: rgb(40,39,44); fill-rule: nonzero; opacity: 1;" transform=" matrix(1 0 0 1 0 0) " stroke-linecap="round" />
	<circle cx="47.669" cy="29.089" r="6.119" style="stroke: none; stroke-width: 1; stroke-dasharray: none; stroke-linecap: butt; stroke-linejoin: miter; stroke-miterlimit: 10; fill: rgb(255,213,127); fill-rule: nonzero; opacity: 1;" transform="  matrix(1 0 0 1 0 0) "/>
	<path d="M 47.67 35.209 c -3.38 0 -6.119 -2.74 -6.119 -6.119 s 2.74 -6.119 6.119 -6.119 C 43.59 27.05 43.59 31.13 47.67 35.209 z" style="stroke: none; stroke-width: 1; stroke-dasharray: none; stroke-linecap: butt; stroke-linejoin: miter; stroke-miterlimit: 10; fill: rgb(255,191,103); fill-rule: nonzero; opacity: 1;" transform=" matrix(1 0 0 1 0 0) " stroke-linecap="round" />
	<path d="M 47.67 35.709 c -3.65 0 -6.619 -2.97 -6.619 -6.619 s 2.969 -6.619 6.619 -6.619 s 6.62 2.97 6.62 6.619 S 51.32 35.709 47.67 35.709 z M 47.67 23.471 c -3.099 0 -5.619 2.521 -5.619 5.619 s 2.521 5.619 5.619 5.619 s 5.62 -2.521 5.62 -5.619 S 50.769 23.471 47.67 23.471 z" style="stroke: none; stroke-width: 1; stroke-dasharray: none; stroke-linecap: butt; stroke-linejoin: miter; stroke-miterlimit: 10; fill: rgb(40,39,44); fill-rule: nonzero; opacity: 1;" transform=" matrix(1 0 0 1 0 0) " stroke-linecap="round" />
	<circle cx="36.498999999999995" cy="46.278999999999996" r="6.119" style="stroke: none; stroke-width: 1; stroke-dasharray: none; stroke-linecap: butt; stroke-linejoin: miter; stroke-miterlimit: 10; fill: rgb(115,231,230); fill-rule: nonzero; opacity: 1;" transform="  matrix(1 0 0 1 0 0) "/>
	<path d="M 36.498 52.396 c -3.38 0 -6.119 -2.74 -6.119 -6.119 c 0 -3.38 2.74 -6.119 6.119 -6.119 C 32.418 44.237 32.418 48.316 36.498 52.396 z" style="stroke: none; stroke-width: 1; stroke-dasharray: none; stroke-linecap: butt; stroke-linejoin: miter; stroke-miterlimit: 10; fill: rgb(75,218,216); fill-rule: nonzero; opacity: 1;" transform=" matrix(1 0 0 1 0 0) " stroke-linecap="round" />
	<path d="M 36.498 52.896 c -3.65 0 -6.619 -2.97 -6.619 -6.62 c 0 -3.649 2.969 -6.619 6.619 -6.619 s 6.62 2.97 6.62 6.619 C 43.117 49.926 40.147 52.896 36.498 52.896 z M 36.498 40.657 c -3.099 0 -5.619 2.521 -5.619 5.619 s 2.521 5.62 5.619 5.62 s 5.62 -2.521 5.62 -5.62 S 39.596 40.657 36.498 40.657 z" style="stroke: none; stroke-width: 1; stroke-dasharray: none; stroke-linecap: butt; stroke-linejoin: miter; stroke-miterlimit: 10; fill: rgb(40,39,44); fill-rule: nonzero; opacity: 1;" transform=" matrix(1 0 0 1 0 0) " stroke-linecap="round" />
	<circle cx="58.099" cy="46.278999999999996" r="6.119" style="stroke: none; stroke-width: 1; stroke-dasharray: none; stroke-linecap: butt; stroke-linejoin: miter; stroke-miterlimit: 10; fill: rgb(115,231,230); fill-rule: nonzero; opacity: 1;" transform="  matrix(1 0 0 1 0 0) "/>
	<path d="M 58.102 52.396 c -3.38 0 -6.119 -2.74 -6.119 -6.119 c 0 -3.38 2.74 -6.119 6.119 -6.119 C 54.022 44.237 54.022 48.316 58.102 52.396 z" style="stroke: none; stroke-width: 1; stroke-dasharray: none; stroke-linecap: butt; stroke-linejoin: miter; stroke-miterlimit: 10; fill: rgb(75,218,216); fill-rule: nonzero; opacity: 1;" transform=" matrix(1 0 0 1 0 0) " stroke-linecap="round" />
	<path d="M 58.102 52.896 c -3.649 0 -6.619 -2.97 -6.619 -6.62 c 0 -3.649 2.97 -6.619 6.619 -6.619 s 6.619 2.97 6.619 6.619 C 64.721 49.926 61.751 52.896 58.102 52.896 z M 58.102 40.657 c -3.099 0 -5.619 2.521 -5.619 5.619 s 2.521 5.62 5.619 5.62 s 5.619 -2.521 5.619 -5.62 S 61.201 40.657 58.102 40.657 z" style="stroke: none; stroke-width: 1; stroke-dasharray: none; stroke-linecap: butt; stroke-linejoin: miter; stroke-miterlimit: 10; fill: rgb(40,39,44); fill-rule: nonzero; opacity: 1;" transform=" matrix(1 0 0 1 0 0) " stroke-linecap="round" />
	<circle cx="72.309" cy="46.278999999999996" r="6.119" style="stroke: none; stroke-width: 1; stroke-dasharray: none; stroke-linecap: butt; stroke-linejoin: miter; stroke-miterlimit: 10; fill: rgb(115,231,230); fill-rule: nonzero; opacity: 1;" transform="  matrix(1 0 0 1 0 0) "/>
	<path d="M 72.313 52.396 c -3.38 0 -6.119 -2.74 -6.119 -6.119 c 0 -3.38 2.74 -6.119 6.119 -6.119 C 68.233 44.237 68.233 48.316 72.313 52.396 z" style="stroke: none; stroke-width: 1; stroke-dasharray: none; stroke-linecap: butt; stroke-linejoin: miter; stroke-miterlimit: 10; fill: rgb(75,218,216); fill-rule: nonzero; opacity: 1;" transform=" matrix(1 0 0 1 0 0) " stroke-linecap="round" />
	<path d="M 72.313 52.896 c -3.649 0 -6.619 -2.97 -6.619 -6.62 c 0 -3.649 2.97 -6.619 6.619 -6.619 s 6.619 2.97 6.619 6.619 C 78.932 49.926 75.962 52.896 72.313 52.896 z M 72.313 40.657 c -3.099 0 -5.619 2.521 -5.619 5.619 s 2.521 5.62 5.619 5.62 s 5.619 -2.521 5.619 -5.62 S 75.412 40.657 72.313 40.657 z" style="stroke: none; stroke-width: 1; stroke-dasharray: none; stroke-linecap: butt; stroke-linejoin: miter; stroke-miterlimit: 10; fill: rgb(40,39,44); fill-rule: nonzero; opacity: 1;" transform=" matrix(1 0 0 1 0 0) " stroke-linecap="round" />
	<circle cx="19.249000000000002" cy="63.589" r="6.119" style="stroke: none; stroke-width: 1; stroke-dasharray: none; stroke-linecap: butt; stroke-linejoin: miter; stroke-miterlimit: 10; fill: rgb(255,129,192); fill-rule: nonzero; opacity: 1;" transform="  matrix(1 0 0 1 0 0) "/>
	<path d="M 19.248 69.71 c -3.38 0 -6.119 -2.74 -6.119 -6.119 s 2.74 -6.119 6.119 -6.119 C 15.168 61.551 15.168 65.63 19.248 69.71 z" style="stroke: none; stroke-width: 1; stroke-dasharray: none; stroke-linecap: butt; stroke-linejoin: miter; stroke-miterlimit: 10; fill: rgb(255,101,179); fill-rule: nonzero; opacity: 1;" transform=" matrix(1 0 0 1 0 0) " stroke-linecap="round" />
	<path d="M 19.248 70.209 c -3.65 0 -6.619 -2.97 -6.619 -6.619 s 2.969 -6.619 6.619 -6.619 s 6.619 2.97 6.619 6.619 S 22.897 70.209 19.248 70.209 z M 19.248 57.971 c -3.099 0 -5.619 2.521 -5.619 5.619 s 2.521 5.619 5.619 5.619 s 5.619 -2.521 5.619 -5.619 S 22.346 57.971 19.248 57.971 z" style="stroke: none; stroke-width: 1; stroke-dasharray: none; stroke-linecap: butt; stroke-linejoin: miter; stroke-miterlimit: 10; fill: rgb(40,39,44); fill-rule: nonzero; opacity: 1;" transform=" matrix(1 0 0 1 0 0) " stroke-linecap="round" />
	<circle cx="33.459" cy="63.589" r="6.119" style="stroke: none; stroke-width: 1; stroke-dasharray: none; stroke-linecap: butt; stroke-linejoin: miter; stroke-miterlimit: 10; fill: rgb(255,129,192); fill-rule: nonzero; opacity: 1;" transform="  matrix(1 0 0 1 0 0) "/>
	<path d="M 33.459 69.71 c -3.38 0 -6.119 -2.74 -6.119 -6.119 s 2.74 -6.119 6.119 -6.119 C 29.379 61.551 29.379 65.63 33.459 69.71 z" style="stroke: none; stroke-width: 1; stroke-dasharray: none; stroke-linecap: butt; stroke-linejoin: miter; stroke-miterlimit: 10; fill: rgb(255,101,179); fill-rule: nonzero; opacity: 1;" transform=" matrix(1 0 0 1 0 0) " stroke-linecap="round" />
	<path d="M 33.459 70.209 c -3.65 0 -6.62 -2.97 -6.62 -6.619 s 2.97 -6.619 6.62 -6.619 s 6.619 2.97 6.619 6.619 S 37.109 70.209 33.459 70.209 z M 33.459 57.971 c -3.099 0 -5.62 2.521 -5.62 5.619 s 2.521 5.619 5.62 5.619 s 5.619 -2.521 5.619 -5.619 S 36.558 57.971 33.459 57.971 z" style="stroke: none; stroke-width: 1; stroke-dasharray: none; stroke-linecap: butt; stroke-linejoin: miter; stroke-miterlimit: 10; fill: rgb(40,39,44); fill-rule: nonzero; opacity: 1;" transform=" matrix(1 0 0 1 0 0) " stroke-linecap="round" />
	<circle cx="64.919" cy="63.589" r="6.119" style="stroke: none; stroke-width: 1; stroke-dasharray: none; stroke-linecap: butt; stroke-linejoin: miter; stroke-miterlimit: 10; fill: rgb(255,129,192); fill-rule: nonzero; opacity: 1;" transform="  matrix(1 0 0 1 0 0) "/>
	<path d="M 64.92 69.71 c -3.38 0 -6.119 -2.74 -6.119 -6.119 s 2.74 -6.119 6.119 -6.119 C 60.84 61.551 60.84 65.63 64.92 69.71 z" style="stroke: none; stroke-width: 1; stroke-dasharray: none; stroke-linecap: butt; stroke-linejoin: miter; stroke-miterlimit: 10; fill: rgb(255,101,179); fill-rule: nonzero; opacity: 1;" transform=" matrix(1 0 0 1 0 0) " stroke-linecap="round" />
	<path d="M 64.92 70.209 c -3.649 0 -6.619 -2.97 -6.619 -6.619 s 2.97 -6.619 6.619 -6.619 s 6.619 2.97 6.619 6.619 S 68.57 70.209 64.92 70.209 z M 64.92 57.971 c -3.099 0 -5.619 2.521 -5.619 5.619 s 2.521 5.619 5.619 5.619 s 5.619 -2.521 5.619 -5.619 S 68.019 57.971 64.92 57.971 z" style="stroke: none; stroke-width: 1; stroke-dasharray: none; stroke-linecap: butt; stroke-linejoin: miter; stroke-miterlimit: 10; fill: rgb(40,39,44); fill-rule: nonzero; opacity: 1;" transform=" matrix(1 0 0 1 0 0) " stroke-linecap="round" />
	<path d="M 85.045 85.428 L 85.045 85.428 c -2.45 0 -4.455 -1.741 -4.455 -3.87 V 8.441 c 0 -2.128 2.005 -3.87 4.455 -3.87 h 0" style="stroke: none; stroke-width: 1; stroke-dasharray: none; stroke-linecap: butt; stroke-linejoin: miter; stroke-miterlimit: 10; fill: rgb(214,214,234); fill-rule: nonzero; opacity: 1;" transform=" matrix(1 0 0 1 0 0) " stroke-linecap="round" />
	<path d="M 85.884 85.928 h -1.679 c -2.27 0 -4.116 -1.847 -4.116 -4.116 V 8.188 c 0 -2.27 1.847 -4.116 4.116 -4.116 h 1.679 c 2.27 0 4.116 1.847 4.116 4.116 v 73.624 C 90 84.082 88.154 85.928 85.884 85.928 z M 84.206 5.072 c -1.719 0 -3.116 1.397 -3.116 3.116 v 73.624 c 0 1.719 1.397 3.116 3.116 3.116 h 1.679 c 1.719 0 3.116 -1.397 3.116 -3.116 V 8.188 c 0 -1.719 -1.397 -3.116 -3.116 -3.116 H 84.206 z" style="stroke: none; stroke-width: 1; stroke-dasharray: none; stroke-linecap: butt; stroke-linejoin: miter; stroke-miterlimit: 10; fill: rgb(40,39,44); fill-rule: nonzero; opacity: 1;" transform=" matrix(1 0 0 1 0 0) " stroke-linecap="round" />
	<path d="M 9.41 8.188 v 73.625 c 0 1.989 -1.627 3.616 -3.616 3.616 H 4.116 c -1.989 0 -3.616 -1.627 -3.616 -3.616 V 8.188 c 0 -1.989 1.627 -3.616 3.616 -3.616 h 1.679 C 7.783 4.572 9.41 6.199 9.41 8.188 z" style="stroke: none; stroke-width: 1; stroke-dasharray: none; stroke-linecap: butt; stroke-linejoin: miter; stroke-miterlimit: 10; fill: rgb(227,227,244); fill-rule: nonzero; opacity: 1;" transform=" matrix(1 0 0 1 0 0) " stroke-linecap="round" />
	<path d="M 4.955 85.428 L 4.955 85.428 c -2.45 0 -4.455 -1.741 -4.455 -3.87 V 8.441 c 0 -2.128 2.005 -3.87 4.455 -3.87 h 0" style="stroke: none; stroke-width: 1; stroke-dasharray: none; stroke-linecap: butt; stroke-linejoin: miter; stroke-miterlimit: 10; fill: rgb(214,214,234); fill-rule: nonzero; opacity: 1;" transform=" matrix(1 0 0 1 0 0) " stroke-linecap="round" />
	<path d="M 5.794 85.928 H 4.116 C 1.846 85.928 0 84.082 0 81.812 V 8.188 c 0 -2.27 1.846 -4.116 4.116 -4.116 h 1.679 c 2.27 0 4.116 1.847 4.116 4.116 v 73.624 C 9.91 84.082 8.064 85.928 5.794 85.928 z M 4.116 5.072 C 2.398 5.072 1 6.469 1 8.188 v 73.624 c 0 1.719 1.398 3.116 3.116 3.116 h 1.679 c 1.718 0 3.116 -1.397 3.116 -3.116 V 8.188 c 0 -1.719 -1.398 -3.116 -3.116 -3.116 H 4.116 z" style="stroke: none; stroke-width: 1; stroke-dasharray: none; stroke-linecap: butt; stroke-linejoin: miter; stroke-miterlimit: 10; fill: rgb(40,39,44); fill-rule: nonzero; opacity: 1;" transform=" matrix(1 0 0 1 0 0) " stroke-linecap="round" />
</g>
</g>
</svg>